<svg width="24" height="24" viewBox="0 0 24 24" fill="none" xmlns="http://www.w3.org/2000/svg">
<path fill-rule="evenodd" clip-rule="evenodd" d="M8.72682 9.42857C8.72682 7.53502 10.1923 6 12 6C13.8077 6 15.2732 7.53502 15.2732 9.42857C15.2732 11.3221 13.8077 12.8571 12 12.8571C10.1923 12.8571 8.72682 11.3221 8.72682 9.42857Z" fill="#ffffff"/>
<path fill-rule="evenodd" clip-rule="evenodd" d="M6.00008 20.1755C6.05634 16.7547 8.72099 14 12 14C15.2791 14 17.9438 16.7549 17.9999 20.1757C18.0036 20.4026 17.8789 20.6103 17.682 20.7049C15.9516 21.5366 14.0268 22 12.0002 22C9.97344 22 8.0485 21.5365 6.318 20.7047C6.12112 20.61 5.99635 20.4024 6.00008 20.1755Z" fill="#ffffff"/>
<path fill-rule="evenodd" clip-rule="evenodd" d="M7.63229 3.5C7.63229 3.31271 9.82883 2 12.0098 2C14.1908 2 16.3873 3.31271 16.3873 3.5C16.3873 4.16857 16.3066 4.56457 16.2385 4.78014C16.1932 4.92157 16.0429 5 15.8761 5H8.14349C7.97666 5 7.82636 4.92157 7.78113 4.78014C7.71304 4.56457 7.63229 4.16857 7.63229 3.5ZM11.2802 3.28571C11.1512 3.28571 11.0275 3.33087 10.9363 3.41124C10.8451 3.49161 10.7938 3.60062 10.7938 3.71429C10.7938 3.82795 10.8451 3.93696 10.9363 4.01733C11.0275 4.0977 11.1512 4.14286 11.2802 4.14286H12.7394C12.8684 4.14286 12.9921 4.0977 13.0833 4.01733C13.1745 3.93696 13.2258 3.82795 13.2258 3.71429C13.2258 3.60062 13.1745 3.49161 13.0833 3.41124C12.9921 3.33087 12.8684 3.28571 12.7394 3.28571H11.2802Z" fill="#ffffff"/>
<path d="M8.13717 7.66486C6.51749 7.22343 6.92606 6.43486 7.54377 5.85714H16.611C17.1052 6.41343 17.3703 7.16386 15.8766 7.613L14.9223 7.83543C14.1587 7.94 13.1625 8 11.8775 8C10.7189 8 9.80694 7.95157 9.09535 7.865L8.13717 7.66486Z" fill="#ffffff"/>
</svg>
