<svg width="20" height="20" viewBox="0 0 20 20" fill="none" xmlns="http://www.w3.org/2000/svg">
<path d="M15.0036 8.40678C15.142 8.84181 14.7879 9.24926 14.3314 9.24926H10.8665C10.5985 9.24926 10.3509 9.10632 10.217 8.87428L8.48423 5.87336C8.25581 5.47777 8.43184 4.96723 8.8782 4.87009C9.23956 4.79145 9.61482 4.75002 9.99976 4.75002C12.3438 4.75002 14.329 6.28622 15.0036 8.40678Z" fill="#42424A"/>
<path d="M6.11914 6.46397C6.42703 6.12627 6.95743 6.2289 7.18594 6.62466L8.91792 9.62426C9.05191 9.85632 9.05192 10.1422 8.91794 10.3743L7.18553 13.3749C6.95701 13.7707 6.42655 13.8733 6.11867 13.5356C5.26828 12.6026 4.74976 11.3619 4.74976 10C4.74976 8.63793 5.26847 7.39699 6.11914 6.46397Z" fill="#42424A"/>
<path d="M8.87751 15.1298C8.43121 15.0326 8.25523 14.5221 8.48361 14.1266L10.217 11.1243C10.351 10.8922 10.5986 10.7493 10.8665 10.7493H14.3319C14.7883 10.7493 15.1424 11.1566 15.0042 11.5915C14.3301 13.713 12.3444 15.25 9.99976 15.25C9.61458 15.25 9.23909 15.2085 8.87751 15.1298Z" fill="#42424A"/>
<path fill-rule="evenodd" clip-rule="evenodd" d="M19.0005 10.7493C19.4147 10.7493 19.7505 10.4135 19.7505 9.99926C19.7505 9.58505 19.4147 9.24926 19.0005 9.24926H18.2169C18.175 8.78511 18.0948 8.33205 17.9793 7.89328L18.714 7.62585C19.1033 7.48418 19.304 7.0538 19.1623 6.66456C19.0206 6.27533 18.5902 6.07464 18.201 6.21631L17.4661 6.48378C17.2692 6.06635 17.0384 5.6681 16.7771 5.2926L17.3769 4.78932C17.6942 4.52307 17.7355 4.05001 17.4693 3.7327C17.203 3.41539 16.73 3.37401 16.4127 3.64026L15.8124 4.14396C15.4867 3.82069 15.1342 3.5244 14.7585 3.25872L15.1499 2.5808C15.357 2.22208 15.2341 1.76339 14.8754 1.55629C14.5167 1.34918 14.058 1.47209 13.8509 1.8308L13.4602 2.50753C13.0462 2.31606 12.6138 2.15789 12.1662 2.03644L12.3018 1.26696C12.3738 0.859038 12.1014 0.470044 11.6935 0.398116C11.2855 0.326189 10.8966 0.598565 10.8246 1.00649L10.6887 1.77755C10.4618 1.75881 10.2322 1.74926 10.0005 1.74926C9.76873 1.74926 9.53915 1.75883 9.31214 1.7776L9.17617 1.00653C9.10425 0.598607 8.71525 0.32623 8.30733 0.398158C7.89941 0.470085 7.62704 0.859079 7.69896 1.267L7.83468 2.03667C7.38725 2.15812 6.95481 2.31626 6.54088 2.5077L6.14994 1.83062C5.94282 1.47191 5.48412 1.34902 5.12541 1.55615C4.7667 1.76327 4.64381 2.22196 4.85093 2.58068L5.24249 3.25881C4.86698 3.52435 4.51459 3.82054 4.18897 4.14374L3.5882 3.63964C3.2709 3.37339 2.79783 3.41477 2.53158 3.73208C2.26533 4.04939 2.30671 4.52245 2.62402 4.7887L3.22424 5.29235C2.96284 5.66796 2.73185 6.06637 2.53484 6.48399L1.79981 6.21646C1.41058 6.07479 0.980197 6.27548 0.838527 6.66472C0.696858 7.05395 0.897549 7.48433 1.28678 7.626L2.02171 7.8935C1.90623 8.33218 1.82596 8.78516 1.78413 9.24926H1.00049C0.586275 9.24926 0.250488 9.58505 0.250488 9.99926C0.250488 10.4135 0.586275 10.7493 1.00049 10.7493H1.78412C1.82594 11.2134 1.9062 11.6664 2.02168 12.1051L1.28653 12.3727C0.897301 12.5143 0.69661 12.9447 0.83828 13.334C0.979949 13.7232 1.41033 13.9239 1.79956 13.7822L2.53477 13.5146C2.7318 13.9323 2.96286 14.3308 3.22436 14.7066L2.62387 15.2104C2.30656 15.4767 2.26517 15.9498 2.53143 16.2671C2.79768 16.5844 3.27074 16.6258 3.58805 16.3595L4.18916 15.8551C4.51482 16.1783 4.8673 16.4745 5.24296 16.7402L4.85087 17.4193C4.64377 17.778 4.76667 18.2367 5.12539 18.4438C5.48411 18.6509 5.9428 18.528 6.14991 18.1693L6.54137 17.4912C6.95515 17.6826 7.38747 17.8407 7.83489 17.9621L7.69896 18.733C7.62703 19.1409 7.89941 19.5299 8.30733 19.6019C8.71525 19.6738 9.10424 19.4014 9.17617 18.9935L9.31239 18.221C9.53927 18.2397 9.76876 18.2493 10.0005 18.2493C10.2321 18.2493 10.4616 18.2397 10.6884 18.221L10.8246 18.9935C10.8966 19.4015 11.2855 19.6738 11.6935 19.6019C12.1014 19.53 12.3738 19.141 12.3018 18.7331L12.1659 17.9621C12.6134 17.8407 13.0457 17.6826 13.4596 17.4913L13.8509 18.1691C14.058 18.5278 14.5167 18.6507 14.8754 18.4436C15.2342 18.2365 15.3571 17.7778 15.15 17.4191L14.758 16.7402C15.1338 16.4745 15.4863 16.1782 15.8121 15.8548L16.4128 16.3589C16.7301 16.6251 17.2032 16.5837 17.4694 16.2664C17.7357 15.9491 17.6943 15.4761 17.377 15.2098L16.7768 14.7062C17.0382 14.3307 17.2692 13.9323 17.4661 13.5148L18.2012 13.7824C18.5905 13.924 19.0209 13.7233 19.1625 13.3341C19.3042 12.9449 19.1035 12.5145 18.7143 12.3728L17.9792 12.1053C18.0948 11.6665 18.175 11.2134 18.2169 10.7493H19.0005ZM16.3432 7.69062C16.3372 7.674 16.3317 7.65729 16.3269 7.64054C16.0591 6.92249 15.6725 6.26231 15.1911 5.68387C15.1843 5.67643 15.1777 5.66883 15.1712 5.66106C15.1648 5.65346 15.1586 5.64576 15.1525 5.63798C14.6623 5.05942 14.0763 4.56453 13.4191 4.17775C13.4044 4.17048 13.3898 4.16269 13.3754 4.15436C13.3606 4.14581 13.3462 4.13682 13.3322 4.12744C12.6879 3.76112 11.9775 3.49776 11.2233 3.35975C11.2064 3.35793 11.1895 3.35553 11.1725 3.35254C11.1561 3.34964 11.1399 3.34623 11.1239 3.34231C10.7585 3.28111 10.3832 3.24926 10.0005 3.24926C9.61807 3.24926 9.24328 3.28099 8.87854 3.34196C8.86203 3.34604 8.84527 3.34958 8.82828 3.35258C8.8107 3.35568 8.79316 3.35814 8.77568 3.35998C8.00474 3.50118 7.2802 3.7733 6.62524 4.15229C5.94733 4.54456 5.3442 5.05104 4.84207 5.64533C4.83803 5.6504 4.83391 5.65544 4.82971 5.66044C4.82758 5.66298 4.82544 5.6655 4.82328 5.668C4.82103 5.67062 4.81875 5.67323 4.81647 5.67581C4.33173 6.25638 3.94284 6.91949 3.67384 7.6409C3.66904 7.65758 3.66363 7.67422 3.65761 7.69078C3.65158 7.70734 3.64502 7.72357 3.63797 7.73944C3.38702 8.44605 3.25049 9.20676 3.25049 9.99926C3.25049 10.7936 3.3877 11.5559 3.63972 12.2638C3.64602 12.2782 3.6519 12.2929 3.65736 12.3079C3.6628 12.3229 3.66774 12.3379 3.67219 12.3529C4.21973 13.8245 5.26589 15.0535 6.60531 15.8345C6.60909 15.8365 6.61287 15.8386 6.61663 15.8407C6.61956 15.8424 6.62248 15.844 6.62539 15.8457C6.63241 15.8498 6.63934 15.8539 6.64617 15.8581C7.30406 16.2356 8.03157 16.5055 8.8047 16.6437C8.81255 16.6448 8.82041 16.6461 8.82827 16.6474C8.8356 16.6487 8.84288 16.6501 8.85012 16.6516C9.22397 16.7158 9.60832 16.7493 10.0005 16.7493C10.3927 16.7493 10.7771 16.7158 11.151 16.6516C11.1581 16.6501 11.1653 16.6488 11.1725 16.6475C11.1803 16.6461 11.1881 16.6449 11.1958 16.6437C11.9672 16.5059 12.6933 16.237 13.35 15.8609C13.3584 15.8556 13.3668 15.8505 13.3754 15.8456C13.3837 15.8408 13.392 15.8362 13.4003 15.8318C14.0697 15.4407 14.6658 14.9378 15.1627 14.3485L15.1713 14.3381L15.1805 14.3273C15.6677 13.7449 16.0584 13.0791 16.3282 12.3544C16.3328 12.3389 16.3378 12.3235 16.3435 12.3081C16.3491 12.2926 16.3552 12.2775 16.3617 12.2626C16.6134 11.5551 16.7505 10.7932 16.7505 9.99926C16.7505 9.20671 16.6139 8.44606 16.363 7.73957C16.3559 7.72361 16.3493 7.70729 16.3432 7.69062Z" fill="#42424A"/>
</svg>
