<svg width="20" height="20" viewBox="0 0 20 20" fill="none" xmlns="http://www.w3.org/2000/svg">
<path fill-rule="evenodd" clip-rule="evenodd" d="M5.5 3.25C5.5 1.59315 6.84315 0.25 8.5 0.25H11.5C13.1569 0.25 14.5 1.59315 14.5 3.25V3.45498C15.4325 3.54034 16.3574 3.65196 17.274 3.78912C18.7281 4.00668 19.75 5.27163 19.75 6.70569V9.73889C19.75 10.95 19.0164 12.0913 17.8137 12.4911C15.3566 13.308 12.7292 13.75 10 13.75C7.27087 13.75 4.64342 13.308 2.18627 12.4911C0.98364 12.0912 0.25 10.95 0.25 9.73887V6.70569C0.25 5.27163 1.27191 4.00668 2.72596 3.78912C3.6426 3.65196 4.56753 3.54034 5.5 3.45498V3.25ZM13 3.25V3.34082C12.0077 3.28056 11.0074 3.25 10 3.25C8.99265 3.25 7.99235 3.28056 7 3.34082V3.25C7 2.42157 7.67157 1.75 8.5 1.75H11.5C12.3284 1.75 13 2.42157 13 3.25ZM10 11.5C10.4142 11.5 10.75 11.1642 10.75 10.75C10.75 10.3358 10.4142 10 10 10C9.58579 10 9.25 10.3358 9.25 10.75C9.25 11.1642 9.58579 11.5 10 11.5Z" fill="#42424A"/>
<path d="M1 16.4V13.6039C1.22304 13.7263 1.46097 13.8307 1.71303 13.9145C4.32087 14.7815 7.10801 15.25 10 15.25C12.892 15.25 15.6791 14.7815 18.287 13.9145C18.539 13.8307 18.777 13.7263 19 13.604V16.4C19 17.8519 17.9528 19.1275 16.4769 19.3234C14.3575 19.6048 12.1955 19.75 10 19.75C7.80447 19.75 5.64246 19.6048 3.52314 19.3234C2.04724 19.1275 1 17.8519 1 16.4Z" fill="#42424A"/>
</svg>
